<?xml version="1.0" encoding="UTF-8" standalone="no"?>
<!-- Created with Inkscape (http://www.inkscape.org/) -->

<svg
   xmlns:dc="http://purl.org/dc/elements/1.1/"
   xmlns:cc="http://creativecommons.org/ns#"
   xmlns:rdf="http://www.w3.org/1999/02/22-rdf-syntax-ns#"
   xmlns:svg="http://www.w3.org/2000/svg"
   xmlns="http://www.w3.org/2000/svg"
   xmlns:sodipodi="http://sodipodi.sourceforge.net/DTD/sodipodi-0.dtd"
   xmlns:inkscape="http://www.inkscape.org/namespaces/inkscape"
   width="10.416667in"
   height="10.416667in"
   viewBox="0 0 264.58332 264.58334"
   version="1.1"
   id="svg8"
   inkscape:version="0.92.2 5c3e80d, 2017-08-06"
   sodipodi:docname="giraffe.svg">
  <defs
     id="defs2" />
  <sodipodi:namedview
     id="base"
     pagecolor="#ffffff"
     bordercolor="#666666"
     borderopacity="1.0"
     inkscape:pageopacity="0.0"
     inkscape:pageshadow="2"
     inkscape:zoom="0.73699998"
     inkscape:cx="500.00002"
     inkscape:cy="500.00002"
     inkscape:document-units="mm"
     inkscape:current-layer="layer1"
     showgrid="false"
     inkscape:window-width="1680"
     inkscape:window-height="950"
     inkscape:window-x="0"
     inkscape:window-y="1"
     inkscape:window-maximized="1"
     units="in"
     inkscape:pagecheckerboard="false" />
  <metadata
     id="metadata5">
    <rdf:RDF>
      <cc:Work
         rdf:about="">
        <dc:format>image/svg+xml</dc:format>
        <dc:type
           rdf:resource="http://purl.org/dc/dcmitype/StillImage" />
        <dc:title></dc:title>
      </cc:Work>
    </rdf:RDF>
  </metadata>
  <g
     inkscape:label="Layer 1"
     inkscape:groupmode="layer"
     id="layer1"
     transform="translate(0,-32.416653)">
    <g
       aria-label="a"
       style="font-style:normal;font-variant:normal;font-weight:300;font-stretch:normal;font-size:17.38524055px;line-height:1.25;font-family:'.SF Compact Display';-inkscape-font-specification:'.SF Compact Display, Light';font-variant-ligatures:normal;font-variant-caps:normal;font-variant-numeric:normal;font-feature-settings:normal;text-align:start;letter-spacing:0px;word-spacing:0px;writing-mode:lr-tb;text-anchor:start;fill:#000000;fill-opacity:1;stroke:none;stroke-width:0.41301867"
       id="text12"
       transform="matrix(12.878323,0,0,12.878323,-38.512199,-3478.6465)">
      <path
         d="m 12.624657,280.89951 h 0.03396 v 1.18844 h 1.137511 v -6.19689 c 0,-1.80813 -1.315778,-2.8268 -3.166355,-2.8268 -2.0373328,0 -3.0814659,1.0696 -3.1918214,2.58912 h 1.1120442 c 0.1188444,-0.95076 0.7894665,-1.57045 2.0373332,-1.57045 1.281822,0 2.037333,0.67062 2.037333,1.95245 v 1.00168 h -2.453289 c -2.0203549,0.008 -3.0814658,0.9932 -3.0814658,2.5212 0,1.62138 1.1799553,2.674 2.8947105,2.674 1.4091553,0 2.2410663,-0.64515 2.6400443,-1.33275 z m -2.3684,0.32258 c -1.044133,0 -1.9524439,-0.56876 -1.9524439,-1.69778 0,-0.89134 0.5687554,-1.528 1.9099999,-1.528 h 2.410844 v 1.12902 c 0,1.23938 -1.027156,2.09676 -2.3684,2.09676 z"
         style="font-style:normal;font-variant:normal;font-weight:300;font-stretch:normal;font-size:17.38524055px;font-family:'.SF Compact Display';-inkscape-font-specification:'.SF Compact Display, Light';font-variant-ligatures:normal;font-variant-caps:normal;font-variant-numeric:normal;font-feature-settings:normal;text-align:start;writing-mode:lr-tb;text-anchor:start;stroke-width:0.41301867"
         id="path14"
         inkscape:connector-curvature="0" />
    </g>
    <g
       aria-label="h"
       style="font-style:normal;font-variant:normal;font-weight:300;font-stretch:normal;font-size:17.38524055px;line-height:1.25;font-family:'.SF Compact Display';-inkscape-font-specification:'.SF Compact Display, Light';font-variant-ligatures:normal;font-variant-caps:normal;font-variant-numeric:normal;font-feature-settings:normal;text-align:start;letter-spacing:0px;word-spacing:0px;writing-mode:lr-tb;text-anchor:start;fill:#000000;fill-opacity:1;stroke:none;stroke-width:0.45624039"
       id="text16"
       transform="matrix(12.878323,0,0,12.878323,-38.163184,-3480.2269)">
      <path
         d="m 12.597561,292.53851 h 1.171466 v -5.43288 c 0,-1.2988 0.721555,-2.51272 2.393866,-2.51272 1.409155,0 2.308977,0.88285 2.308977,2.40236 v 5.54324 h 1.162978 v -5.71302 c 0,-2.14769 -1.358222,-3.31066 -3.174844,-3.31066 -1.485555,0 -2.334444,0.78946 -2.657022,1.42613 h -0.03396 v -4.60098 h -1.171466 z"
         style="font-style:normal;font-variant:normal;font-weight:300;font-stretch:normal;font-size:17.38524055px;font-family:'.SF Compact Display';-inkscape-font-specification:'.SF Compact Display, Light';font-variant-ligatures:normal;font-variant-caps:normal;font-variant-numeric:normal;font-feature-settings:normal;text-align:start;writing-mode:lr-tb;text-anchor:start;stroke-width:0.45624039"
         id="path11"
         inkscape:connector-curvature="0" />
    </g>
  </g>
</svg>
